<svg width="400" height="400" xmlns="http://www.w3.org/2000/svg">
  <defs>
    <linearGradient id="stampsGradient" x1="0%" y1="0%" x2="100%" y2="100%">
      <stop offset="0%" style="stop-color:#0d4d4d;stop-opacity:1" />
      <stop offset="50%" style="stop-color:#166b6b;stop-opacity:1" />
      <stop offset="100%" style="stop-color:#1f8080;stop-opacity:1" />
    </linearGradient>
    <pattern id="stampPattern" x="0" y="0" width="30" height="30" patternUnits="userSpaceOnUse">
      <rect width="30" height="30" fill="none"/>
      <rect x="1" y="1" width="3" height="3" fill="#fff" opacity="0.1"/>
    </pattern>
  </defs>
  
  <!-- Stamp 1 - Red (scaled up 1.6x) -->
  <g transform="translate(40, 40) rotate(-15)">
    <rect width="160" height="208" fill="#dc143c" rx="3"/>
    <!-- Perforated edges -->
    <path d="M0,0 L8,8 L0,16 L8,24 L0,32 L8,40 L0,48 L8,56 L0,64 L8,72 L0,80 L8,88 L0,96 L8,104 L0,112 L8,120 L0,128 L8,136 L0,144 L8,152 L0,160 L8,168 L0,176 L8,184 L0,192 L8,200 L0,208 L0,0 Z" fill="#fff" opacity="0.3"/>
    <path d="M160,0 L152,8 L160,16 L152,24 L160,32 L152,40 L160,48 L152,56 L160,64 L152,72 L160,80 L152,88 L160,96 L152,104 L160,112 L152,120 L160,128 L152,136 L160,144 L152,152 L160,160 L152,168 L160,176 L152,184 L160,192 L152,200 L160,208 L160,0 Z" fill="#fff" opacity="0.3"/>
    <rect x="16" y="16" width="128" height="176" fill="#fff"/>
    <text x="80" y="60" text-anchor="middle" fill="#dc143c" font-size="20" font-weight="bold">1980</text>
    <rect x="32" y="80" width="96" height="80" fill="#dc143c" opacity="0.2"/>
    <circle cx="80" cy="120" r="24" fill="#dc143c" opacity="0.3"/>
    <text x="80" y="176" text-anchor="middle" fill="#dc143c" font-size="16">CHINA</text>
  </g>
  
  <!-- Stamp 2 - Blue (scaled up 1.6x) -->
  <g transform="translate(200, 30) rotate(5)">
    <rect width="144" height="192" fill="#1e90ff" rx="3"/>
    <path d="M0,0 L8,8 L0,16 L8,24 L0,32 L8,40 L0,48 L8,56 L0,64 L8,72 L0,80 L8,88 L0,96 L8,104 L0,112 L8,120 L0,128 L8,136 L0,144 L8,152 L0,160 L8,168 L0,176 L8,184 L0,192 L0,0 Z" fill="#fff" opacity="0.3"/>
    <rect x="16" y="16" width="112" height="160" fill="#fff"/>
    <text x="72" y="56" text-anchor="middle" fill="#1e90ff" font-size="18" font-weight="bold">1995</text>
    <rect x="32" y="72" width="80" height="64" fill="#1e90ff" opacity="0.2"/>
    <polygon points="72,104 56,128 88,128" fill="#1e90ff" opacity="0.3"/>
    <text x="72" y="160" text-anchor="middle" fill="#1e90ff" font-size="14">LIMITED</text>
  </g>
  
  <!-- Stamp 3 - Green (scaled up 1.6x) -->
  <g transform="translate(50, 220) rotate(10)">
    <rect width="152" height="200" fill="#228b22" rx="3"/>
    <path d="M0,0 L8,8 L0,16 L8,24 L0,32 L8,40 L0,48 L8,56 L0,64 L8,72 L0,80 L8,88 L0,96 L8,104 L0,112 L8,120 L0,128 L8,136 L0,144 L8,152 L0,160 L8,168 L0,176 L8,184 L0,192 L8,200 L0,0 Z" fill="#fff" opacity="0.3"/>
    <rect x="16" y="16" width="120" height="168" fill="#fff"/>
    <text x="76" y="60" text-anchor="middle" fill="#228b22" font-size="20" font-weight="bold">2000</text>
    <rect x="29" y="77" width="94" height="72" fill="#228b22" opacity="0.2"/>
    <circle cx="76" cy="112" r="20" fill="#228b22" opacity="0.3"/>
    <text x="76" y="168" text-anchor="middle" fill="#228b22" font-size="14">RARE</text>
  </g>
  
  <!-- Stamp 4 - Orange (scaled up 1.6x) -->
  <g transform="translate(230, 210) rotate(-8)">
    <rect width="136" height="184" fill="#ff8c00" rx="3"/>
    <path d="M0,0 L8,8 L0,16 L8,24 L0,32 L8,40 L0,48 L8,56 L0,64 L8,72 L0,80 L8,88 L0,96 L8,104 L0,112 L8,120 L0,128 L8,136 L0,144 L8,152 L0,160 L8,168 L0,176 L8,184 L0,0 Z" fill="#fff" opacity="0.3"/>
    <rect x="16" y="16" width="104" height="152" fill="#fff"/>
    <text x="68" y="56" text-anchor="middle" fill="#ff8c00" font-size="18" font-weight="bold">1975</text>
    <rect x="27" y="69" width="82" height="64" fill="#ff8c00" opacity="0.2"/>
    <text x="68" y="152" text-anchor="middle" fill="#ff8c00" font-size="14">VINTAGE</text>
  </g>
  
  <!-- Postmark overlay (scaled) -->
  <g opacity="0.3">
    <circle cx="200" cy="200" r="90" fill="none" stroke="#000" stroke-width="4"/>
    <circle cx="200" cy="200" r="83" fill="none" stroke="#000" stroke-width="2"/>
    <text x="200" y="185" text-anchor="middle" fill="#000" font-size="20" font-weight="bold">BEIJING</text>
    <text x="200" y="215" text-anchor="middle" fill="#000" font-size="18">2025.11.12</text>
  </g>
</svg>
