<svg width="400" height="400" xmlns="http://www.w3.org/2000/svg">
  <defs>
    <linearGradient id="keyboardGradient" x1="0%" y1="0%" x2="100%" y2="100%">
      <stop offset="0%" style="stop-color:#1a1a2e;stop-opacity:1" />
      <stop offset="50%" style="stop-color:#2d2d44;stop-opacity:1" />
      <stop offset="100%" style="stop-color:#3a3a5a;stop-opacity:1" />
    </linearGradient>
    <linearGradient id="keyGradient" x1="0%" y1="0%" x2="0%" y2="100%">
      <stop offset="0%" style="stop-color:#4a4a6a;stop-opacity:1" />
      <stop offset="100%" style="stop-color:#2d2d44;stop-opacity:1" />
    </linearGradient>
    <radialGradient id="keyLight" cx="50%" cy="30%" r="70%">
      <stop offset="0%" style="stop-color:#6a6a8a;stop-opacity:0.8" />
      <stop offset="100%" style="stop-color:#4a4a6a;stop-opacity:0.3" />
    </radialGradient>
    <linearGradient id="rgbGlow" x1="0%" y1="0%" x2="100%" y2="0%">
      <stop offset="0%" style="stop-color:#ff0000;stop-opacity:0.6" />
      <stop offset="33%" style="stop-color:#00ff00;stop-opacity:0.6" />
      <stop offset="66%" style="stop-color:#0000ff;stop-opacity:0.6" />
      <stop offset="100%" style="stop-color:#ff00ff;stop-opacity:0.6" />
    </linearGradient>
  </defs>
  
  <!-- Keyboard base -->
  <rect x="50" y="150" width="300" height="120" fill="#1a1a2e" rx="8"/>
  <rect x="55" y="155" width="290" height="110" fill="#0d0d1a" rx="5"/>
  
  <!-- RGB underglow -->
  <rect x="50" y="265" width="300" height="8" fill="url(#rgbGlow)" rx="4" opacity="0.8"/>
  
  <!-- Key rows -->
  <!-- Row 1 - Number keys -->
  <g id="row1">
    <rect x="65" y="165" width="18" height="18" fill="url(#keyGradient)" rx="2"/>
    <rect x="65" y="165" width="18" height="12" fill="url(#keyLight)" rx="2"/>
    <text x="74" y="178" text-anchor="middle" fill="#e0e0e0" font-size="10" font-weight="bold">1</text>
    
    <rect x="88" y="165" width="18" height="18" fill="url(#keyGradient)" rx="2"/>
    <rect x="88" y="165" width="18" height="12" fill="url(#keyLight)" rx="2"/>
    <text x="97" y="178" text-anchor="middle" fill="#e0e0e0" font-size="10" font-weight="bold">2</text>
    
    <rect x="111" y="165" width="18" height="18" fill="url(#keyGradient)" rx="2"/>
    <rect x="111" y="165" width="18" height="12" fill="url(#keyLight)" rx="2"/>
    <text x="120" y="178" text-anchor="middle" fill="#e0e0e0" font-size="10" font-weight="bold">3</text>
    
    <rect x="134" y="165" width="18" height="18" fill="url(#keyGradient)" rx="2"/>
    <rect x="134" y="165" width="18" height="12" fill="url(#keyLight)" rx="2"/>
    <text x="143" y="178" text-anchor="middle" fill="#e0e0e0" font-size="10" font-weight="bold">4</text>
    
    <rect x="157" y="165" width="18" height="18" fill="url(#keyGradient)" rx="2"/>
    <rect x="157" y="165" width="18" height="12" fill="url(#keyLight)" rx="2"/>
    <text x="166" y="178" text-anchor="middle" fill="#e0e0e0" font-size="10" font-weight="bold">5</text>
    
    <rect x="180" y="165" width="18" height="18" fill="url(#keyGradient)" rx="2"/>
    <rect x="180" y="165" width="18" height="12" fill="url(#keyLight)" rx="2"/>
    <text x="189" y="178" text-anchor="middle" fill="#e0e0e0" font-size="10" font-weight="bold">6</text>
    
    <rect x="203" y="165" width="18" height="18" fill="url(#keyGradient)" rx="2"/>
    <rect x="203" y="165" width="18" height="12" fill="url(#keyLight)" rx="2"/>
    <text x="212" y="178" text-anchor="middle" fill="#e0e0e0" font-size="10" font-weight="bold">7</text>
    
    <rect x="226" y="165" width="18" height="18" fill="url(#keyGradient)" rx="2"/>
    <rect x="226" y="165" width="18" height="12" fill="url(#keyLight)" rx="2"/>
    <text x="235" y="178" text-anchor="middle" fill="#e0e0e0" font-size="10" font-weight="bold">8</text>
    
    <rect x="249" y="165" width="18" height="18" fill="url(#keyGradient)" rx="2"/>
    <rect x="249" y="165" width="18" height="12" fill="url(#keyLight)" rx="2"/>
    <text x="258" y="178" text-anchor="middle" fill="#e0e0e0" font-size="10" font-weight="bold">9</text>
    
    <rect x="272" y="165" width="18" height="18" fill="url(#keyGradient)" rx="2"/>
    <rect x="272" y="165" width="18" height="12" fill="url(#keyLight)" rx="2"/>
    <text x="281" y="178" text-anchor="middle" fill="#e0e0e0" font-size="10" font-weight="bold">0</text>
  </g>
  
  <!-- Row 2 - QWERTY -->
  <g id="row2">
    <rect x="70" y="188" width="18" height="18" fill="url(#keyGradient)" rx="2"/>
    <rect x="70" y="188" width="18" height="12" fill="url(#keyLight)" rx="2"/>
    <text x="79" y="201" text-anchor="middle" fill="#e0e0e0" font-size="10" font-weight="bold">Q</text>
    
    <rect x="93" y="188" width="18" height="18" fill="url(#keyGradient)" rx="2"/>
    <rect x="93" y="188" width="18" height="12" fill="url(#keyLight)" rx="2"/>
    <text x="102" y="201" text-anchor="middle" fill="#e0e0e0" font-size="10" font-weight="bold">W</text>
    
    <rect x="116" y="188" width="18" height="18" fill="url(#keyGradient)" rx="2"/>
    <rect x="116" y="188" width="18" height="12" fill="url(#keyLight)" rx="2"/>
    <text x="125" y="201" text-anchor="middle" fill="#e0e0e0" font-size="10" font-weight="bold">E</text>
    
    <rect x="139" y="188" width="18" height="18" fill="url(#keyGradient)" rx="2"/>
    <rect x="139" y="188" width="18" height="12" fill="url(#keyLight)" rx="2"/>
    <text x="148" y="201" text-anchor="middle" fill="#e0e0e0" font-size="10" font-weight="bold">R</text>
    
    <rect x="162" y="188" width="18" height="18" fill="url(#keyGradient)" rx="2"/>
    <rect x="162" y="188" width="18" height="12" fill="url(#keyLight)" rx="2"/>
    <text x="171" y="201" text-anchor="middle" fill="#e0e0e0" font-size="10" font-weight="bold">T</text>
    
    <rect x="185" y="188" width="18" height="18" fill="url(#keyGradient)" rx="2"/>
    <rect x="185" y="188" width="18" height="12" fill="url(#keyLight)" rx="2"/>
    <text x="194" y="201" text-anchor="middle" fill="#e0e0e0" font-size="10" font-weight="bold">Y</text>
    
    <rect x="208" y="188" width="18" height="18" fill="url(#keyGradient)" rx="2"/>
    <rect x="208" y="188" width="18" height="12" fill="url(#keyLight)" rx="2"/>
    <text x="217" y="201" text-anchor="middle" fill="#e0e0e0" font-size="10" font-weight="bold">U</text>
    
    <rect x="231" y="188" width="18" height="18" fill="url(#keyGradient)" rx="2"/>
    <rect x="231" y="188" width="18" height="12" fill="url(#keyLight)" rx="2"/>
    <text x="240" y="201" text-anchor="middle" fill="#e0e0e0" font-size="10" font-weight="bold">I</text>
    
    <rect x="254" y="188" width="18" height="18" fill="url(#keyGradient)" rx="2"/>
    <rect x="254" y="188" width="18" height="12" fill="url(#keyLight)" rx="2"/>
    <text x="263" y="201" text-anchor="middle" fill="#e0e0e0" font-size="10" font-weight="bold">O</text>
  </g>
  
  <!-- Row 3 - ASDF -->
  <g id="row3">
    <rect x="75" y="211" width="18" height="18" fill="url(#keyGradient)" rx="2"/>
    <rect x="75" y="211" width="18" height="12" fill="url(#keyLight)" rx="2"/>
    <text x="84" y="224" text-anchor="middle" fill="#e0e0e0" font-size="10" font-weight="bold">A</text>
    
    <rect x="98" y="211" width="18" height="18" fill="url(#keyGradient)" rx="2"/>
    <rect x="98" y="211" width="18" height="12" fill="url(#keyLight)" rx="2"/>
    <text x="107" y="224" text-anchor="middle" fill="#e0e0e0" font-size="10" font-weight="bold">S</text>
    
    <rect x="121" y="211" width="18" height="18" fill="url(#keyGradient)" rx="2"/>
    <rect x="121" y="211" width="18" height="12" fill="url(#keyLight)" rx="2"/>
    <text x="130" y="224" text-anchor="middle" fill="#e0e0e0" font-size="10" font-weight="bold">D</text>
    
    <rect x="144" y="211" width="18" height="18" fill="url(#keyGradient)" rx="2"/>
    <rect x="144" y="211" width="18" height="12" fill="url(#keyLight)" rx="2"/>
    <text x="153" y="224" text-anchor="middle" fill="#e0e0e0" font-size="10" font-weight="bold">F</text>
    
    <rect x="167" y="211" width="18" height="18" fill="url(#keyGradient)" rx="2"/>
    <rect x="167" y="211" width="18" height="12" fill="url(#keyLight)" rx="2"/>
    <text x="176" y="224" text-anchor="middle" fill="#e0e0e0" font-size="10" font-weight="bold">G</text>
    
    <rect x="190" y="211" width="18" height="18" fill="url(#keyGradient)" rx="2"/>
    <rect x="190" y="211" width="18" height="12" fill="url(#keyLight)" rx="2"/>
    <text x="199" y="224" text-anchor="middle" fill="#e0e0e0" font-size="10" font-weight="bold">H</text>
    
    <rect x="213" y="211" width="18" height="18" fill="url(#keyGradient)" rx="2"/>
    <rect x="213" y="211" width="18" height="12" fill="url(#keyLight)" rx="2"/>
    <text x="222" y="224" text-anchor="middle" fill="#e0e0e0" font-size="10" font-weight="bold">J</text>
    
    <rect x="236" y="211" width="18" height="18" fill="url(#keyGradient)" rx="2"/>
    <rect x="236" y="211" width="18" height="12" fill="url(#keyLight)" rx="2"/>
    <text x="245" y="224" text-anchor="middle" fill="#e0e0e0" font-size="10" font-weight="bold">K</text>
  </g>
  
  <!-- Row 4 - Space bar -->
  <g id="row4">
    <rect x="75" y="234" width="18" height="18" fill="url(#keyGradient)" rx="2"/>
    <text x="84" y="247" text-anchor="middle" fill="#e0e0e0" font-size="10" font-weight="bold">Z</text>
    
    <rect x="98" y="234" width="18" height="18" fill="url(#keyGradient)" rx="2"/>
    <text x="107" y="247" text-anchor="middle" fill="#e0e0e0" font-size="10" font-weight="bold">X</text>
    
    <rect x="121" y="234" width="18" height="18" fill="url(#keyGradient)" rx="2"/>
    <text x="130" y="247" text-anchor="middle" fill="#e0e0e0" font-size="10" font-weight="bold">C</text>
    
    <!-- Space bar -->
    <rect x="144" y="234" width="92" height="18" fill="url(#keyGradient)" rx="2"/>
    <rect x="144" y="234" width="92" height="12" fill="url(#keyLight)" rx="2"/>
  </g>
  
  <!-- Logo -->
  <text x="200" y="145" text-anchor="middle" fill="#6a6a8a" font-size="14" font-family="Arial" font-weight="bold" letter-spacing="3">MECHANICAL</text>
  
  <!-- Cable -->
  <path d="M 350 200 Q 370 190, 380 200" stroke="#2d2d44" stroke-width="6" fill="none" stroke-linecap="round"/>
  <circle cx="350" cy="200" r="4" fill="#1a1a2e"/>
</svg>

