<svg width="400" height="400" xmlns="http://www.w3.org/2000/svg">
  <defs>
    <linearGradient id="watchGradient" x1="0%" y1="0%" x2="100%" y2="100%">
      <stop offset="0%" style="stop-color:#2c2416;stop-opacity:1" />
      <stop offset="50%" style="stop-color:#3d3024;stop-opacity:1" />
      <stop offset="100%" style="stop-color:#4a3a2a;stop-opacity:1" />
    </linearGradient>
    <radialGradient id="watchFace" cx="50%" cy="50%" r="50%">
      <stop offset="0%" style="stop-color:#f5f5dc;stop-opacity:1" />
      <stop offset="100%" style="stop-color:#e8e8d0;stop-opacity:1" />
    </radialGradient>
    <linearGradient id="metalGradient" x1="0%" y1="0%" x2="0%" y2="100%">
      <stop offset="0%" style="stop-color:#C0C0C0;stop-opacity:1" />
      <stop offset="50%" style="stop-color:#A8A8A8;stop-opacity:1" />
      <stop offset="100%" style="stop-color:#C0C0C0;stop-opacity:1" />
    </linearGradient>
  </defs>
  
  <!-- Chain (scaled up 1.8x) -->
  <g opacity="0.8">
    <path d="M200,20 Q160,60 200,90" stroke="url(#metalGradient)" stroke-width="6" fill="none"/>
    <circle cx="200" cy="20" r="12" fill="url(#metalGradient)"/>
  </g>
  
  <!-- Watch case (scaled up 1.8x from r=90 to r=160) -->
  <circle cx="200" cy="230" r="160" fill="url(#metalGradient)"/>
  <circle cx="200" cy="230" r="150" fill="#3a2f20"/>
  
  <!-- Watch face -->
  <circle cx="200" cy="230" r="130" fill="url(#watchFace)"/>
  
  <!-- Hour markers (scaled) -->
  <g stroke="#2c2416" stroke-width="3">
    <line x1="200" y1="115" x2="200" y2="135"/>
    <line x1="315" y1="230" x2="295" y2="230"/>
    <line x1="200" y1="345" x2="200" y2="325"/>
    <line x1="85" y1="230" x2="105" y2="230"/>
  </g>
  
  <!-- Numbers (scaled) -->
  <text x="200" y="155" text-anchor="middle" fill="#2c2416" font-size="24" font-family="serif" font-weight="bold">XII</text>
  <text x="275" y="240" text-anchor="middle" fill="#2c2416" font-size="24" font-family="serif" font-weight="bold">III</text>
  <text x="200" y="320" text-anchor="middle" fill="#2c2416" font-size="24" font-family="serif" font-weight="bold">VI</text>
  <text x="130" y="240" text-anchor="middle" fill="#2c2416" font-size="24" font-family="serif" font-weight="bold">IX</text>
  
  <!-- Hour hand (scaled) -->
  <rect x="194" y="180" width="12" height="50" fill="#2c2416" rx="6" transform="rotate(45 200 230)"/>
  
  <!-- Minute hand (scaled) -->
  <rect x="196" y="150" width="8" height="80" fill="#2c2416" rx="4" transform="rotate(120 200 230)"/>
  
  <!-- Second hand (scaled) -->
  <rect x="198" y="140" width="4" height="90" fill="#ff4d4f" rx="2" transform="rotate(180 200 230)"/>
  
  <!-- Center pin (scaled) -->
  <circle cx="200" cy="230" r="10" fill="#D4A574"/>
  <circle cx="200" cy="230" r="6" fill="#2c2416"/>
  
  <!-- Watch crown (scaled) -->
  <rect x="345" y="220" width="24" height="18" fill="url(#metalGradient)" rx="3"/>
  <rect x="360" y="224" width="12" height="10" fill="#A8A8A8" rx="2"/>
  
  <!-- Decorative engravings (scaled) -->
  <text x="200" y="280" text-anchor="middle" fill="#8c8c8c" font-size="14" font-family="serif" font-style="italic">Antique</text>
</svg>
