<svg width="400" height="400" xmlns="http://www.w3.org/2000/svg">
  <defs>
    <linearGradient id="cameraGradient" x1="0%" y1="0%" x2="100%" y2="100%">
      <stop offset="0%" style="stop-color:#2c2c2c;stop-opacity:1" />
      <stop offset="50%" style="stop-color:#3d3d3d;stop-opacity:1" />
      <stop offset="100%" style="stop-color:#4a4a4a;stop-opacity:1" />
    </linearGradient>
    <radialGradient id="lensGradient" cx="50%" cy="50%" r="50%">
      <stop offset="0%" style="stop-color:#1a1a1a;stop-opacity:1" />
      <stop offset="70%" style="stop-color:#0d0d0d;stop-opacity:1" />
      <stop offset="100%" style="stop-color:#1a1a1a;stop-opacity:1" />
    </radialGradient>
    <linearGradient id="metalShine" x1="0%" y1="0%" x2="100%" y2="100%">
      <stop offset="0%" style="stop-color:#C0C0C0;stop-opacity:0.8" />
      <stop offset="50%" style="stop-color:#A8A8A8;stop-opacity:0.5" />
      <stop offset="100%" style="stop-color:#C0C0C0;stop-opacity:0.8" />
    </linearGradient>
  </defs>
  
  <!-- Camera body -->
  <rect x="100" y="130" width="200" height="140" fill="#2c2c2c" rx="15"/>
  <rect x="105" y="135" width="190" height="130" fill="#1a1a1a" rx="12"/>
  
  <!-- Top panel -->
  <rect x="100" y="120" width="200" height="30" fill="#3d3d3d" rx="8"/>
  
  <!-- Flash -->
  <rect x="130" y="125" width="40" height="15" fill="#1a1a1a" rx="3"/>
  <rect x="135" y="128" width="30" height="9" fill="#4a4a4a" rx="2"/>
  
  <!-- Viewfinder -->
  <rect x="220" y="125" width="30" height="15" fill="#1a1a1a" rx="3"/>
  <rect x="225" y="128" width="20" height="9" fill="#0d0d0d" rx="2"/>
  
  <!-- Shutter button -->
  <circle cx="270" cy="132" r="8" fill="url(#metalShine)"/>
  <circle cx="270" cy="132" r="6" fill="#ff4d4f"/>
  
  <!-- Main lens -->
  <circle cx="200" cy="200" r="55" fill="#1a1a1a"/>
  <circle cx="200" cy="200" r="50" fill="url(#lensGradient)"/>
  
  <!-- Lens rings -->
  <circle cx="200" cy="200" r="48" fill="none" stroke="url(#metalShine)" stroke-width="2"/>
  <circle cx="200" cy="200" r="40" fill="none" stroke="#0d0d0d" stroke-width="3"/>
  
  <!-- Lens reflection -->
  <ellipse cx="190" cy="190" rx="15" ry="20" fill="#4a4a4a" opacity="0.3" transform="rotate(-30 190 190)"/>
  
  <!-- Brand name -->
  <text x="200" y="165" text-anchor="middle" fill="#C0C0C0" font-size="12" font-family="Arial" font-weight="bold" letter-spacing="2">RETRO</text>
  
  <!-- Film counter -->
  <rect x="250" y="150" width="35" height="20" fill="#1a1a1a" rx="3"/>
  <text x="267" y="164" text-anchor="middle" fill="#ff4d4f" font-size="12" font-family="monospace" font-weight="bold">24</text>
  
  <!-- Mode dial -->
  <circle cx="140" cy="160" r="15" fill="#2c2c2c"/>
  <circle cx="140" cy="160" r="12" fill="#1a1a1a"/>
  <line x1="140" y1="160" x2="140" y2="152" stroke="#C0C0C0" stroke-width="2"/>
  <text x="140" y="150" text-anchor="middle" fill="#C0C0C0" font-size="8">M</text>
  
  <!-- Focus ring markings -->
  <g opacity="0.7">
    <line x1="165" y1="203" x2="172" y2="203" stroke="#C0C0C0" stroke-width="1"/>
    <line x1="167" y1="210" x2="172" y2="208" stroke="#C0C0C0" stroke-width="1"/>
    <line x1="170" y1="215" x2="175" y2="212" stroke="#C0C0C0" stroke-width="1"/>
  </g>
  
  <!-- Camera grip texture -->
  <g opacity="0.3">
    <rect x="110" y="200" width="3" height="60" fill="#4a4a4a" rx="1"/>
    <rect x="115" y="200" width="3" height="60" fill="#4a4a4a" rx="1"/>
    <rect x="120" y="200" width="3" height="60" fill="#4a4a4a" rx="1"/>
  </g>
  
  <!-- Film advance lever -->
  <path d="M280,180 Q290,175 295,185 L290,190 Q285,185 280,187 Z" fill="url(#metalShine)"/>
  
  <!-- Strap lugs -->
  <rect x="95" y="145" width="8" height="15" fill="#2c2c2c" rx="2"/>
  <rect x="297" y="145" width="8" height="15" fill="#2c2c2c" rx="2"/>
  <circle cx="99" cy="152" r="3" fill="#1a1a1a"/>
  <circle cx="301" cy="152" r="3" fill="#1a1a1a"/>
</svg>

