<svg xmlns="http://www.w3.org/2000/svg" viewBox="0 0 32 32">
  <rect width="32" height="32" fill="#DE2910" rx="2"/>
  <g fill="#FFDE00">
    <!-- 大星 -->
    <path d="M8 4.5l1.5 4.6h4.8l-3.9 2.8 1.5 4.6-3.9-2.8-3.9 2.8 1.5-4.6-3.9-2.8h4.8z"/>
    <!-- 小星1 -->
    <path d="M18 4l.5 1.5h1.6l-1.3.9.5 1.5-1.3-.9-1.3.9.5-1.5-1.3-.9h1.6z"/>
    <!-- 小星2 -->
    <path d="M21 7l.5 1.5h1.6l-1.3.9.5 1.5-1.3-.9-1.3.9.5-1.5-1.3-.9h1.6z"/>
    <!-- 小星3 -->
    <path d="M21 12l.5 1.5h1.6l-1.3.9.5 1.5-1.3-.9-1.3.9.5-1.5-1.3-.9h1.6z"/>
    <!-- 小星4 -->
    <path d="M18 15l.5 1.5h1.6l-1.3.9.5 1.5-1.3-.9-1.3.9.5-1.5-1.3-.9h1.6z"/>
  </g>
</svg>

