<svg xmlns="http://www.w3.org/2000/svg" viewBox="0 0 32 32">
  <defs>
    <clipPath id="a">
      <rect width="32" height="32" rx="2"/>
    </clipPath>
  </defs>
  <g clip-path="url(#a)">
    <!-- 红白条纹 -->
    <path fill="#B22234" d="M0 0h32v2.46H0zm0 4.92h32v2.46H0zm0 4.93h32v2.46H0zm0 4.92h32v2.46H0zm0 4.92h32v2.46H0zm0 4.93h32v2.46H0zm0 4.92h32V32H0z"/>
    <path fill="#FFF" d="M0 2.46h32v2.46H0zm0 4.92h32v2.46H0zm0 4.93h32v2.46H0zm0 4.92h32v2.46H0zm0 4.92h32v2.46H0zm0 4.93h32v2.46H0z"/>
    <!-- 蓝色区域 -->
    <path fill="#3C3B6E" d="M0 0h12.8v17.23H0z"/>
    <!-- 白色星星 -->
    <g fill="#FFF">
      <path d="M1.6 1.5l.3.9h1l-.8.6.3.9-.8-.6-.8.6.3-.9-.8-.6h1z"/>
      <path d="M4.3 1.5l.3.9h1l-.8.6.3.9-.8-.6-.8.6.3-.9-.8-.6h1z"/>
      <path d="M7 1.5l.3.9h1l-.8.6.3.9-.8-.6-.8.6.3-.9-.8-.6h1z"/>
      <path d="M9.7 1.5l.3.9h1l-.8.6.3.9-.8-.6-.8.6.3-.9-.8-.6h1z"/>
      <path d="M2.95 3.5l.3.9h1l-.8.6.3.9-.8-.6-.8.6.3-.9-.8-.6h1z"/>
      <path d="M5.65 3.5l.3.9h1l-.8.6.3.9-.8-.6-.8.6.3-.9-.8-.6h1z"/>
      <path d="M8.35 3.5l.3.9h1l-.8.6.3.9-.8-.6-.8.6.3-.9-.8-.6h1z"/>
      <path d="M1.6 5.5l.3.9h1l-.8.6.3.9-.8-.6-.8.6.3-.9-.8-.6h1z"/>
      <path d="M4.3 5.5l.3.9h1l-.8.6.3.9-.8-.6-.8.6.3-.9-.8-.6h1z"/>
      <path d="M7 5.5l.3.9h1l-.8.6.3.9-.8-.6-.8.6.3-.9-.8-.6h1z"/>
      <path d="M9.7 5.5l.3.9h1l-.8.6.3.9-.8-.6-.8.6.3-.9-.8-.6h1z"/>
    </g>
  </g>
</svg>

